# xmcd
#
# Track frame offsets:
# 150
# 20605
# 39505
# 54685
# 65592
# 79852
# 93822
# 108687
# 120812
# 133615
# 152597
# 168132
# 182307
# 196727
#
# Disc length: 2825 seconds
#
# Revision: 1
# Processed by: cddbd v1.5.1PL0 Copyright (c) Steve Scherf et al.
# Submitted via: Easy CD Ripper v2.27
#
DISCID=a70b070e
DTITLE=Carlos Alberto - Minha Rainha e Outros Sucessos
DYEAR=2004
DGENRE=Blues
TTITLE0=Minha Rainha - Carlos Albeto
TTITLE1=Ronda - Carlos Albeto
TTITLE2=Negue - Carlos Albeto
TTITLE3=Nervos de Aço - Carlos Albeto
TTITLE4=Caminito - Carlos Albeto
TTITLE5=A Noite do Meu Bem - Carlos Albeto
TTITLE6=Talismã - Carlos Albeto
TTITLE7=Nunca - Carlos Albeto
TTITLE8=Sabor a Mi - Carlos Albeto
TTITLE9=As Rosas Não Falam - Carlos Albeto
TTITLE10=Lado a Lado - Carlos Albeto
TTITLE11=Cabelos Cor de Prata - Carlos Albeto
TTITLE12=Deslizes - Carlos Albeto
TTITLE13=Memórias - Carlos Albeto
EXTD=
EXTT0=
EXTT1=
EXTT2=
EXTT3=
EXTT4=
EXTT5=
EXTT6=
EXTT7=
EXTT8=
EXTT9=
EXTT10=
EXTT11=
EXTT12=
EXTT13=
PLAYORDER=
